<?xml version="1.0" encoding="UTF-8"?><svg xmlns="http://www.w3.org/2000/svg" viewBox="0 0 120 39.7"><g id="a"/><g id="b"><g id="c"><g><path d="M8.05,.54V31.65h15.83v7.51H0V.54H8.05Z"/><path d="M28.59,12.02c0-1.82,.32-3.47,.97-4.94,.64-1.47,1.56-2.73,2.74-3.78,1.18-1.05,2.6-1.87,4.26-2.44,1.66-.57,3.51-.86,5.55-.86s3.89,.29,5.55,.86c1.66,.57,3.08,1.39,4.26,2.44,1.18,1.06,2.09,2.32,2.74,3.78,.64,1.47,.97,3.11,.97,4.94v15.61c0,1.79-.33,3.42-.99,4.91-.66,1.48-1.58,2.75-2.76,3.81-1.18,1.06-2.6,1.88-4.27,2.47-1.66,.59-3.5,.89-5.5,.89s-3.89-.29-5.55-.86c-1.66-.57-3.08-1.39-4.26-2.44-1.18-1.05-2.09-2.32-2.74-3.81-.64-1.48-.97-3.14-.97-4.96V12.02Zm8.05,15.61c0,1.54,.49,2.76,1.48,3.67,.98,.91,2.31,1.37,4,1.37s3.01-.46,4-1.37c.98-.91,1.48-2.14,1.48-3.67V12.02c0-1.54-.49-2.76-1.48-3.67-.98-.91-2.32-1.37-4-1.37s-3.01,.46-4,1.37c-.98,.91-1.48,2.14-1.48,3.67v15.61Z"/><path d="M73.76,17.7h14.05v9.92c0,1.82-.32,3.48-.97,4.96-.64,1.48-1.56,2.75-2.74,3.81-1.18,1.06-2.6,1.87-4.26,2.44-1.66,.57-3.51,.86-5.55,.86s-3.89-.29-5.55-.86c-1.66-.57-3.08-1.39-4.26-2.44-1.18-1.05-2.09-2.32-2.74-3.81-.64-1.48-.97-3.14-.97-4.96V12.07c0-1.79,.32-3.41,.97-4.85s1.56-2.68,2.74-3.7c1.18-1.02,2.6-1.81,4.26-2.39,1.66-.57,3.51-.86,5.55-.86,1.9,0,3.63,.26,5.2,.78,1.57,.52,2.95,1.27,4.13,2.25,1.18,.98,2.13,2.17,2.84,3.57,.71,1.39,1.16,2.95,1.34,4.67h-8.05c-.14-1.25-.71-2.23-1.69-2.95-.98-.71-2.24-1.07-3.78-1.07-1.68,0-3.01,.42-4,1.26-.98,.84-1.48,1.94-1.48,3.3v15.56c0,1.54,.49,2.76,1.48,3.67,.98,.91,2.31,1.37,4,1.37s3.01-.46,4-1.37c.98-.91,1.48-2.14,1.48-3.67v-3.11h-6.01v-6.81Z"/><path d="M92.96,12.02c0-1.82,.32-3.47,.97-4.94,.64-1.47,1.56-2.73,2.74-3.78,1.18-1.05,2.6-1.87,4.26-2.44,1.66-.57,3.51-.86,5.55-.86s3.89,.29,5.55,.86c1.66,.57,3.08,1.39,4.26,2.44,1.18,1.06,2.09,2.32,2.74,3.78,.64,1.47,.97,3.11,.97,4.94v15.61c0,1.79-.33,3.42-.99,4.91-.66,1.48-1.58,2.75-2.76,3.81-1.18,1.06-2.6,1.88-4.27,2.47-1.66,.59-3.5,.89-5.5,.89s-3.89-.29-5.55-.86c-1.66-.57-3.08-1.39-4.26-2.44-1.18-1.05-2.09-2.32-2.74-3.81-.64-1.48-.97-3.14-.97-4.96V12.02Zm8.05,15.61c0,1.54,.49,2.76,1.48,3.67,.98,.91,2.31,1.37,4,1.37s3.01-.46,4-1.37c.98-.91,1.48-2.14,1.48-3.67V12.02c0-1.54-.49-2.76-1.48-3.67-.98-.91-2.32-1.37-4-1.37s-3.01,.46-4,1.37c-.98,.91-1.48,2.14-1.48,3.67v15.61Z"/></g></g></g></svg>